<svg width="364" height="100" viewBox="0 0 364 100" fill="none" xmlns="http://www.w3.org/2000/svg">
<path d="M112.375 56.2619C110.628 56.2619 109.057 55.9626 107.66 55.3639C106.263 54.7403 105.166 53.8673 104.367 52.7448C103.569 51.6223 103.17 50.3127 103.17 48.8161H107.735C107.835 49.9386 108.271 50.8615 109.044 51.5849C109.843 52.3083 110.953 52.67 112.375 52.67C113.846 52.67 114.994 52.3207 115.817 51.6223C116.64 50.8989 117.052 49.976 117.052 48.8535C117.052 47.9805 116.79 47.2696 116.266 46.7208C115.767 46.172 115.131 45.748 114.358 45.4486C113.609 45.1493 112.562 44.825 111.215 44.4758C109.518 44.0268 108.134 43.5778 107.061 43.1288C106.014 42.6549 105.116 41.9315 104.367 40.9587C103.619 39.9859 103.245 38.6888 103.245 37.0674C103.245 35.5708 103.619 34.2612 104.367 33.1387C105.116 32.0162 106.163 31.1557 107.51 30.557C108.857 29.9584 110.416 29.659 112.187 29.659C114.707 29.659 116.765 30.2951 118.361 31.5673C119.982 32.8145 120.88 34.5356 121.055 36.7307H116.341C116.266 35.7828 115.817 34.9721 114.994 34.2986C114.17 33.6251 113.085 33.2884 111.738 33.2884C110.516 33.2884 109.518 33.6002 108.745 34.2238C107.972 34.8474 107.585 35.7454 107.585 36.9178C107.585 37.716 107.822 38.377 108.296 38.9008C108.795 39.3997 109.419 39.7988 110.167 40.0981C110.915 40.3975 111.938 40.7217 113.235 41.071C114.956 41.5449 116.353 42.0188 117.426 42.4928C118.523 42.9667 119.446 43.7026 120.194 44.7003C120.968 45.6731 121.354 46.9827 121.354 48.629C121.354 49.9511 120.993 51.1983 120.269 52.3706C119.571 53.543 118.536 54.4909 117.164 55.2143C115.817 55.9127 114.22 56.2619 112.375 56.2619ZM131.364 38.8634V50.2753C131.364 51.0486 131.538 51.6098 131.888 51.9591C132.262 52.2833 132.885 52.4455 133.758 52.4455H136.378V56H133.01C131.089 56 129.618 55.551 128.595 54.653C127.572 53.755 127.061 52.2958 127.061 50.2753V38.8634H124.629V35.3837H127.061V30.2577H131.364V35.3837H136.378V38.8634H131.364ZM149.251 56.3367C147.306 56.3367 145.547 55.9002 143.976 55.0272C142.404 54.1292 141.169 52.882 140.271 51.2856C139.373 49.6642 138.924 47.7934 138.924 45.6731C138.924 43.5778 139.386 41.7195 140.309 40.0981C141.232 38.4768 142.491 37.2296 144.088 36.3565C145.684 35.4835 147.468 35.047 149.438 35.047C151.409 35.047 153.193 35.4835 154.789 36.3565C156.385 37.2296 157.645 38.4768 158.568 40.0981C159.491 41.7195 159.952 43.5778 159.952 45.6731C159.952 47.7684 159.478 49.6268 158.531 51.2481C157.583 52.8695 156.286 54.1292 154.639 55.0272C153.018 55.9002 151.222 56.3367 149.251 56.3367ZM149.251 52.6325C150.349 52.6325 151.372 52.3706 152.319 51.8468C153.292 51.323 154.078 50.5372 154.677 49.4896C155.275 48.4419 155.575 47.1698 155.575 45.6731C155.575 44.1765 155.288 42.9168 154.714 41.8941C154.14 40.8465 153.38 40.0607 152.432 39.5369C151.484 39.0131 150.461 38.7512 149.364 38.7512C148.266 38.7512 147.243 39.0131 146.295 39.5369C145.373 40.0607 144.637 40.8465 144.088 41.8941C143.539 42.9168 143.265 44.1765 143.265 45.6731C143.265 47.8932 143.826 49.6143 144.948 50.8366C146.096 52.0339 147.53 52.6325 149.251 52.6325ZM168.434 38.377C169.058 37.3293 169.881 36.5187 170.904 35.9449C171.952 35.3463 173.186 35.047 174.608 35.047V39.4621H173.523C171.852 39.4621 170.58 39.8861 169.707 40.7342C168.858 41.5823 168.434 43.054 168.434 45.1493V56H164.169V35.3837H168.434V38.377ZM177.107 45.5983C177.107 43.5279 177.531 41.6946 178.379 40.0981C179.252 38.5017 180.425 37.267 181.896 36.3939C183.393 35.4959 185.039 35.047 186.835 35.047C188.457 35.047 189.866 35.3712 191.063 36.0198C192.286 36.6434 193.258 37.4291 193.982 38.377V35.3837H198.285V56H193.982V52.9319C193.258 53.9047 192.273 54.7154 191.026 55.3639C189.779 56.0125 188.357 56.3367 186.76 56.3367C184.989 56.3367 183.368 55.8878 181.896 54.9898C180.425 54.0668 179.252 52.7947 178.379 51.1733C177.531 49.527 177.107 47.6687 177.107 45.5983ZM193.982 45.6731C193.982 44.2513 193.682 43.0166 193.084 41.9689C192.51 40.9213 191.749 40.1231 190.801 39.5743C189.854 39.0255 188.831 38.7512 187.733 38.7512C186.636 38.7512 185.613 39.0255 184.665 39.5743C183.717 40.0981 182.944 40.8839 182.345 41.9315C181.772 42.9542 181.485 44.1765 181.485 45.5983C181.485 47.0201 181.772 48.2673 182.345 49.3399C182.944 50.4125 183.717 51.2357 184.665 51.8094C185.638 52.3582 186.661 52.6325 187.733 52.6325C188.831 52.6325 189.854 52.3582 190.801 51.8094C191.749 51.2606 192.51 50.4624 193.084 49.4148C193.682 48.3422 193.982 47.095 193.982 45.6731ZM212.193 35.047C213.79 35.047 215.199 35.3712 216.422 36.0198C217.669 36.6434 218.642 37.4291 219.34 38.377V35.3837H223.643V56.3367C223.643 58.2325 223.244 59.9162 222.446 61.3879C221.647 62.8846 220.487 64.0569 218.966 64.905C217.469 65.7531 215.673 66.1772 213.578 66.1772C210.784 66.1772 208.464 65.5162 206.618 64.1941C204.773 62.897 203.725 61.126 203.476 58.881H207.704C208.028 59.9536 208.714 60.8142 209.761 61.4628C210.834 62.1362 212.106 62.473 213.578 62.473C215.299 62.473 216.683 61.9492 217.731 60.9015C218.804 59.8539 219.34 58.3323 219.34 56.3367V52.8945C218.617 53.8673 217.631 54.6904 216.384 55.3639C215.162 56.0125 213.765 56.3367 212.193 56.3367C210.398 56.3367 208.751 55.8878 207.255 54.9898C205.783 54.0668 204.61 52.7947 203.737 51.1733C202.889 49.527 202.465 47.6687 202.465 45.5983C202.465 43.5279 202.889 41.6946 203.737 40.0981C204.61 38.5017 205.783 37.267 207.255 36.3939C208.751 35.4959 210.398 35.047 212.193 35.047ZM219.34 45.6731C219.34 44.2513 219.041 43.0166 218.442 41.9689C217.868 40.9213 217.107 40.1231 216.16 39.5743C215.212 39.0255 214.189 38.7512 213.091 38.7512C211.994 38.7512 210.971 39.0255 210.023 39.5743C209.075 40.0981 208.302 40.8839 207.704 41.9315C207.13 42.9542 206.843 44.1765 206.843 45.5983C206.843 47.0201 207.13 48.2673 207.704 49.3399C208.302 50.4125 209.075 51.2357 210.023 51.8094C210.996 52.3582 212.019 52.6325 213.091 52.6325C214.189 52.6325 215.212 52.3582 216.16 51.8094C217.107 51.2606 217.868 50.4624 218.442 49.4148C219.041 48.3422 219.34 47.095 219.34 45.6731ZM248.14 45.1867C248.14 45.96 248.091 46.6584 247.991 47.282H232.239C232.363 48.9283 232.974 50.2504 234.072 51.2481C235.17 52.2459 236.517 52.7448 238.113 52.7448C240.408 52.7448 242.029 51.7844 242.977 49.8638H247.579C246.956 51.7595 245.821 53.3185 244.174 54.5408C242.553 55.7381 240.533 56.3367 238.113 56.3367C236.142 56.3367 234.371 55.9002 232.8 55.0272C231.253 54.1292 230.031 52.882 229.133 51.2856C228.26 49.6642 227.823 47.7934 227.823 45.6731C227.823 43.5529 228.248 41.6946 229.096 40.0981C229.969 38.4768 231.178 37.2296 232.725 36.3565C234.296 35.4835 236.092 35.047 238.113 35.047C240.059 35.047 241.792 35.471 243.314 36.3191C244.835 37.1672 246.02 38.3645 246.868 39.9111C247.716 41.4326 248.14 43.1912 248.14 45.1867ZM243.688 43.8398C243.663 42.2683 243.102 41.0086 242.004 40.0607C240.907 39.1128 239.547 38.6389 237.926 38.6389C236.454 38.6389 235.194 39.1128 234.147 40.0607C233.099 40.9837 232.476 42.2433 232.276 43.8398H243.688ZM279.727 29.9958V56H275.461V38.1899L267.529 56H264.573L256.604 38.1899V56H252.338V29.9958H256.94L266.07 50.3876L275.162 29.9958H279.727ZM300.636 29.9958V33.4755H289.598V41.1458H298.204V44.6255H289.598V56H285.333V29.9958H300.636ZM331.978 29.9958V56H327.712V38.1899L319.78 56H316.824L308.855 38.1899V56H304.589V29.9958H309.191L318.321 50.3876L327.413 29.9958H331.978Z" fill="white"/>
<rect opacity="0.2" y="3" width="74.8323" height="74.8323" rx="37.4161" fill="white"/>
<rect x="32.7393" y="34.1801" width="49.8882" height="49.8882" rx="24.9441" fill="white"/>
</svg>
